<svg width="20" height="20" viewBox="0 0 20 20" fill="none" xmlns="http://www.w3.org/2000/svg">
<path d="M17.5 8.33203C17.5 14.1654 10 19.1654 10 19.1654C10 19.1654 2.5 14.1654 2.5 8.33203C2.5 6.34291 3.29018 4.43525 4.6967 3.02873C6.10322 1.62221 8.01088 0.832031 10 0.832031C11.9891 0.832031 13.8968 1.62221 15.3033 3.02873C16.7098 4.43525 17.5 6.34291 17.5 8.33203Z" stroke="#2F3567" stroke-width="1.5" stroke-linecap="round" stroke-linejoin="round"/>
<path d="M10 11.834C11.933 11.834 13.5 10.267 13.5 8.33398C13.5 6.40099 11.933 4.83398 10 4.83398C8.067 4.83398 6.5 6.40099 6.5 8.33398C6.5 10.267 8.067 11.834 10 11.834Z" fill="white" stroke="#FF6F3F" stroke-width="1.5" stroke-linecap="round" stroke-linejoin="round"/>
</svg>
