<svg width="28" height="28" viewBox="0 0 28 28" fill="none" xmlns="http://www.w3.org/2000/svg">
<circle opacity="0.15" cx="14" cy="14" r="14" fill="white"/>
<circle cx="14.0004" cy="14.0004" r="12.6" fill="#46CD80"/>
<path d="M17.7571 16.5212C17.7571 17.0546 17.6291 17.5506 17.3731 18.0092C17.1171 18.4679 16.7278 18.8412 16.2051 19.1292C15.6825 19.4172 15.0371 19.5612 14.2691 19.5612C13.5225 19.5612 12.8558 19.4279 12.2691 19.1612C11.6931 18.8839 11.2291 18.5106 10.8771 18.0412C10.5358 17.5612 10.3385 17.0172 10.2851 16.4092H11.8371C11.8691 16.7292 11.9758 17.0439 12.1571 17.3532C12.3491 17.6519 12.6158 17.9026 12.9571 18.1052C13.3091 18.2972 13.7305 18.3932 14.2211 18.3932C14.8611 18.3932 15.3518 18.2226 15.6931 17.8812C16.0345 17.5399 16.2051 17.1026 16.2051 16.5692C16.2051 16.1106 16.0825 15.7372 15.8371 15.4492C15.6025 15.1612 15.3091 14.9372 14.9571 14.7772C14.6051 14.6066 14.1251 14.4252 13.5171 14.2332C12.8025 13.9986 12.2265 13.7799 11.7891 13.5772C11.3625 13.3639 10.9945 13.0492 10.6851 12.6332C10.3865 12.2172 10.2371 11.6679 10.2371 10.9852C10.2371 10.3986 10.3758 9.88122 10.6531 9.43322C10.9411 8.98522 11.3465 8.63855 11.8691 8.39322C12.4025 8.14788 13.0265 8.02522 13.7411 8.02522C14.8505 8.02522 15.7305 8.29722 16.3811 8.84122C17.0318 9.37455 17.4105 10.0572 17.5171 10.8892H15.9491C15.8638 10.4412 15.6345 10.0466 15.2611 9.70522C14.8878 9.36388 14.3811 9.19322 13.7411 9.19322C13.1545 9.19322 12.6851 9.34788 12.3331 9.65722C11.9811 9.95588 11.8051 10.3826 11.8051 10.9372C11.8051 11.3746 11.9171 11.7319 12.1411 12.0092C12.3758 12.2759 12.6638 12.4892 13.0051 12.6492C13.3465 12.7986 13.8158 12.9692 14.4131 13.1612C15.1385 13.3959 15.7198 13.6199 16.1571 13.8332C16.6051 14.0466 16.9838 14.3719 17.2931 14.8092C17.6025 15.2359 17.7571 15.8066 17.7571 16.5212Z" fill="white"/>
</svg>
