<svg width="20" height="20" viewBox="0 0 20 20" fill="none" xmlns="http://www.w3.org/2000/svg">
<g clip-path="url(#clip0_6352_13080)">
<path d="M7.50033 18.3346C7.96056 18.3346 8.33366 17.9615 8.33366 17.5013C8.33366 17.0411 7.96056 16.668 7.50033 16.668C7.04009 16.668 6.66699 17.0411 6.66699 17.5013C6.66699 17.9615 7.04009 18.3346 7.50033 18.3346Z" stroke="#FF6F3F" stroke-width="1.5" stroke-linecap="round" stroke-linejoin="round"/>
<path d="M16.6663 18.3346C17.1266 18.3346 17.4997 17.9615 17.4997 17.5013C17.4997 17.0411 17.1266 16.668 16.6663 16.668C16.2061 16.668 15.833 17.0411 15.833 17.5013C15.833 17.9615 16.2061 18.3346 16.6663 18.3346Z" stroke="#FF6F3F" stroke-width="1.5" stroke-linecap="round" stroke-linejoin="round"/>
<path d="M0.833008 0.832031H4.16634L6.39967 11.9904C6.47588 12.374 6.6846 12.7187 6.9893 12.9639C7.29399 13.2092 7.67526 13.3395 8.06634 13.332H16.1663C16.5574 13.3395 16.9387 13.2092 17.2434 12.9639C17.5481 12.7187 17.7568 12.374 17.833 11.9904L19.1663 4.9987H4.99967" stroke="#2F3567" stroke-width="1.5" stroke-linecap="round" stroke-linejoin="round"/>
</g>
<defs>
<clipPath id="clip0_6352_13080">
<rect width="20" height="20" fill="white"/>
</clipPath>
</defs>
</svg>
