<svg width="16" height="17" viewBox="0 0 16 17" fill="none" xmlns="http://www.w3.org/2000/svg">
<g clip-path="url(#clip0_5718_3162)">
<path d="M6.00065 14.7865C6.36884 14.7865 6.66732 14.488 6.66732 14.1198C6.66732 13.7516 6.36884 13.4531 6.00065 13.4531C5.63246 13.4531 5.33398 13.7516 5.33398 14.1198C5.33398 14.488 5.63246 14.7865 6.00065 14.7865Z" stroke="#989898" stroke-width="1.2" stroke-linecap="round" stroke-linejoin="round"/>
<path d="M13.3327 14.7865C13.7009 14.7865 13.9993 14.488 13.9993 14.1198C13.9993 13.7516 13.7009 13.4531 13.3327 13.4531C12.9645 13.4531 12.666 13.7516 12.666 14.1198C12.666 14.488 12.9645 14.7865 13.3327 14.7865Z" stroke="#989898" stroke-width="1.2" stroke-linecap="round" stroke-linejoin="round"/>
<path d="M0.666016 0.789062H3.33268L5.11935 9.71573C5.18031 10.0227 5.34729 10.2984 5.59105 10.4946C5.8348 10.6908 6.13981 10.7951 6.45268 10.7891H12.9327C13.2456 10.7951 13.5506 10.6908 13.7943 10.4946C14.0381 10.2984 14.2051 10.0227 14.266 9.71573L15.3327 4.1224H3.99935" stroke="#989898" stroke-width="1.2" stroke-linecap="round" stroke-linejoin="round"/>
</g>
<defs>
<clipPath id="clip0_5718_3162">
<rect width="16" height="16" fill="white" transform="translate(0 0.121094)"/>
</clipPath>
</defs>
</svg>
