<svg width="137" height="123" viewBox="0 0 137 123" fill="none" xmlns="http://www.w3.org/2000/svg">
<path d="M82.2734 58.0512C70.6129 64.6719 33.0858 75.6024 15.7798 80.2401C12.5033 75.5385 11.7645 70.0452 11.8046 67.8863L6.74533 52.7739C3.8543 48.552 2.97093 42.6989 2.89062 40.3001C18.2131 33.6794 53.3631 23.1487 69.0228 18.7109C71.1429 20.7259 72.7972 27.5465 73.3594 30.7049L78.1778 45.9373C80.4906 48.3361 81.8718 55.0127 82.2734 58.0512Z" fill="#F2B200"/>
<ellipse cx="8.79354" cy="60.6892" rx="8.79354" ry="8.75561" fill="white"/>
<ellipse cx="75.5279" cy="38.3806" rx="8.79354" ry="8.75561" fill="white"/>
<path d="M53.8457 25.0664L67.2167 62.0079" stroke="#2F3567" stroke-width="0.8" stroke-dasharray="4 4"/>
<path d="M23.4894 94.6328C20.237 99.6303 18.9121 111.664 31.4397 113.703C33.7286 114.076 38.9324 113.703 41.438 110.825C42.4017 109.717 42.2571 107.562 38.306 106.507C35.5355 105.767 30.8134 106.867 33.6081 112.144C34.8127 114.263 38.7638 118.693 44.9313 119.46C49.6293 120.045 57.3868 120.036 59.9887 118.981" stroke="#2F3567" stroke-width="0.8"/>
<path d="M83.9599 0L74.6846 18.5907L93.8376 9.47525L83.9599 0Z" fill="#FF6F3F"/>
<path d="M87.0916 17.5117L78.9004 21.3498L86.8507 21.5897L87.0916 17.5117Z" fill="#FFD4C5"/>
<path d="M68.6611 4.67747L71.4317 14.7524L78.2979 3.83789L68.6611 4.67747Z" stroke="#2F3567" stroke-width="0.8"/>
<path d="M45.0971 57.8527L44.5237 56.5909C44.1273 55.7186 43.9439 54.8394 43.9736 53.9534C44.0075 53.056 44.2725 52.2329 44.7685 51.484C45.2688 50.7237 46.0181 50.1187 47.0166 49.6689C48.0306 49.2121 48.9817 49.051 49.8699 49.1857C50.7545 49.3127 51.5387 49.6632 52.2224 50.2372C52.9026 50.8034 53.4409 51.5227 53.8373 52.395L54.4107 53.6568C54.8071 54.5292 54.9923 55.4123 54.9662 56.3061C54.9443 57.1886 54.6872 58.0082 54.1947 58.7649C53.7065 59.5103 52.9631 60.108 51.9647 60.5578C50.9506 61.0146 49.9974 61.1813 49.105 61.0579C48.209 60.9267 47.417 60.5797 46.729 60.017C46.0375 59.4465 45.4935 58.7251 45.0971 57.8527ZM46.9106 55.5156L47.484 56.7774C47.8132 57.5018 48.2803 58.0748 48.8855 58.4966C49.4871 58.9105 50.2091 58.9278 51.0515 58.5482C51.8705 58.1792 52.3186 57.6349 52.3956 56.9152C52.4769 56.1842 52.353 55.4565 52.0238 54.7322L51.4504 53.4704C51.1213 52.746 50.6637 52.1733 50.0777 51.7523C49.4882 51.3235 48.7722 51.2989 47.9297 51.6784C47.1107 52.0474 46.6527 52.6009 46.5558 53.339C46.4632 54.0657 46.5815 54.7912 46.9106 55.5156ZM26.9403 49.5365L26.3669 48.2747C25.9705 47.4023 25.7871 46.5231 25.8168 45.6371C25.8507 44.7398 26.1157 43.9167 26.6117 43.1677C27.112 42.4075 27.8613 41.8025 28.8598 41.3527C29.8738 40.8958 30.8249 40.7348 31.7131 40.8695C32.5977 40.9964 33.3819 41.3469 34.0656 41.9209C34.7458 42.4872 35.2841 43.2065 35.6805 44.0788L36.2539 45.3406C36.6503 46.213 36.8355 47.096 36.8094 47.9898C36.7875 48.8723 36.5304 49.692 36.0379 50.4487C35.5496 51.1941 34.8063 51.7917 33.8079 52.2415C32.7938 52.6984 31.8406 52.8651 30.9482 52.7416C30.0522 52.6104 29.2602 52.2635 28.5722 51.7008C27.8807 51.1303 27.3367 50.4088 26.9403 49.5365ZM28.7538 47.1994L29.3272 48.4611C29.6564 49.1855 30.1235 49.7586 30.7287 50.1803C31.3303 50.5943 32.0523 50.6115 32.8947 50.232C33.7137 49.863 34.1618 49.3187 34.2388 48.599C34.3201 47.868 34.1962 47.1403 33.867 46.4159L33.2936 45.1541C32.9645 44.4298 32.5069 43.8571 31.9209 43.4361C31.3313 43.0073 30.6154 42.9827 29.7729 43.3622C28.9539 43.7312 28.4959 44.2847 28.399 45.0227C28.3064 45.7494 28.4247 46.475 28.7538 47.1994ZM36.0906 67.3151L41.6917 35.9658L44.3595 34.764L38.7583 66.1133L36.0906 67.3151Z" fill="white"/>
<path opacity="0.3" d="M38.9666 90.2661L38.2302 90.3211C37.721 90.3592 37.2472 90.2894 36.8087 90.1119C36.3653 89.9302 36.001 89.6466 35.716 89.2611C35.426 88.8713 35.2591 88.3855 35.2152 87.8037C35.1707 87.2128 35.2629 86.7076 35.4919 86.2882C35.7163 85.8692 36.0344 85.5414 36.4463 85.305C36.8536 85.0688 37.3119 84.9317 37.821 84.8937L38.5574 84.8386C39.0666 84.8006 39.5427 84.8701 39.9858 85.0473C40.4239 85.2202 40.7878 85.4993 41.0774 85.8845C41.3622 86.2655 41.5265 86.7469 41.5703 87.3288C41.6149 87.9197 41.5251 88.4269 41.301 88.8505C41.0724 89.2745 40.7546 89.6068 40.3476 89.8475C39.9361 90.0885 39.4757 90.228 38.9666 90.2661ZM38.1253 88.9302L38.8617 88.8751C39.2845 88.8435 39.6565 88.7152 39.9779 88.49C40.2946 88.2652 40.4345 87.9073 40.3975 87.4164C40.3615 86.9391 40.1702 86.6151 39.8237 86.4445C39.4722 86.2696 39.0851 86.198 38.6623 86.2296L37.9259 86.2846C37.5031 86.3162 37.133 86.4399 36.8156 86.6556C36.4936 86.8716 36.3511 87.2251 36.3881 87.7161C36.424 88.1933 36.6181 88.524 36.9703 88.7079C37.3175 88.8877 37.7026 88.9618 38.1253 88.9302ZM31.4993 97.8181L30.7629 97.8732C30.2537 97.9112 29.7799 97.8415 29.3414 97.664C28.898 97.4823 28.5337 97.1987 28.2487 96.8131C27.9587 96.4234 27.7918 95.9376 27.7479 95.3558C27.7034 94.7648 27.7956 94.2597 28.0246 93.8403C28.249 93.4213 28.5671 93.0935 28.979 92.857C29.3864 92.6209 29.8446 92.4838 30.3537 92.4457L31.0902 92.3907C31.5993 92.3526 32.0754 92.4222 32.5185 92.5993C32.9566 92.7723 33.3205 93.0514 33.6102 93.4366C33.8949 93.8176 34.0592 94.299 34.103 94.8808C34.1476 95.4717 34.0578 95.979 33.8337 96.4026C33.6051 96.8265 33.2873 97.1588 32.8803 97.3995C32.4688 97.6405 32.0084 97.7801 31.4993 97.8181ZM30.658 96.4822L31.3944 96.4272C31.8172 96.3956 32.1892 96.2672 32.5106 96.0421C32.8273 95.8173 32.9672 95.4594 32.9302 94.9685C32.8942 94.4912 32.7029 94.1672 32.3564 93.9965C32.0049 93.8217 31.6178 93.75 31.195 93.7816L30.4586 93.8367C30.0358 93.8683 29.6657 93.9919 29.3483 94.2076C29.0263 94.4237 28.8838 94.7772 28.9208 95.2681C28.9568 95.7454 29.1508 96.076 29.503 96.26C29.8502 96.4397 30.2353 96.5138 30.658 96.4822ZM42.0702 96.507L27.3817 87.9503L27.2645 86.3957L41.953 94.9524L42.0702 96.507Z" fill="#2F3567"/>
<path opacity="0.3" d="M129.539 65.2618L129.542 64.5234C129.544 64.0128 129.65 63.546 129.862 63.1229C130.078 62.6952 130.389 62.3546 130.796 62.1009C131.207 61.8427 131.705 61.7148 132.288 61.7171C132.881 61.7194 133.377 61.8513 133.777 62.1127C134.177 62.3696 134.479 62.7127 134.682 63.142C134.886 63.5668 134.987 64.0344 134.984 64.545L134.982 65.2834C134.979 65.794 134.873 66.2631 134.661 66.6908C134.455 67.1139 134.148 67.4546 133.741 67.7128C133.339 67.9665 132.846 68.0921 132.263 68.0898C131.67 68.0875 131.171 67.9579 130.767 67.701C130.362 67.4395 130.056 67.0964 129.848 66.6716C129.64 66.2423 129.537 65.7724 129.539 65.2618ZM130.937 64.5289L130.934 65.2674C130.932 65.6913 131.031 66.0723 131.23 66.4105C131.429 66.744 131.775 66.9118 132.267 66.9137C132.746 66.9156 133.084 66.7506 133.281 66.4186C133.483 66.0821 133.585 65.7018 133.587 65.2779L133.59 64.5394C133.591 64.1155 133.497 63.7368 133.307 63.4032C133.117 63.0651 132.776 62.8951 132.283 62.8932C131.805 62.8913 131.46 63.0586 131.249 63.3951C131.042 63.727 130.938 64.105 130.937 64.5289ZM122.596 57.2203L122.599 56.4818C122.601 55.9713 122.708 55.5045 122.919 55.0814C123.135 54.6537 123.447 54.3131 123.853 54.0594C124.265 53.8012 124.762 53.6733 125.346 53.6756C125.938 53.6779 126.435 53.8098 126.835 54.0712C127.235 54.3281 127.537 54.6712 127.74 55.1005C127.943 55.5253 128.044 55.9929 128.042 56.5035L128.039 57.2419C128.037 57.7525 127.93 58.2216 127.719 58.6493C127.512 59.0724 127.205 59.4131 126.799 59.6713C126.396 59.925 125.904 60.0506 125.32 60.0483C124.728 60.046 124.229 59.9164 123.824 59.6595C123.42 59.398 123.113 59.0549 122.905 58.6301C122.697 58.2008 122.594 57.7309 122.596 57.2203ZM123.994 56.4874L123.991 57.2259C123.99 57.6498 124.088 58.0308 124.288 58.369C124.487 58.7025 124.833 58.8703 125.325 58.8722C125.803 58.8741 126.141 58.7091 126.339 58.3771C126.541 58.0406 126.643 57.6603 126.644 57.2364L126.647 56.4979C126.649 56.074 126.555 55.6953 126.365 55.3617C126.174 55.0236 125.833 54.8536 125.341 54.8517C124.862 54.8498 124.517 55.0171 124.306 55.3535C124.1 55.6855 123.996 56.0634 123.994 56.4874ZM123.073 67.8619L132.757 53.8965L134.316 53.9027L124.632 67.8681L123.073 67.8619Z" fill="#2F3567"/>
<path d="M81.3104 71.7248C83.7196 70.7653 87.7751 70.5254 89.5017 70.5254H109.498C118.171 70.5254 124.114 75.4029 126.001 77.8417C131.59 85.0381 135.236 96.5923 136.36 101.47C137.806 110.873 135.116 114.343 133.59 114.903C128.386 117.59 120.098 115.383 116.605 113.944V119.941C115.834 121.668 109.94 122.579 107.089 122.819C82.9969 123.683 77.1345 121.26 77.2148 119.941L79.0217 98.7113C71.505 106.1 64.7272 106.907 62.2778 106.387C53.3157 103.701 46.7386 87.9167 44.5703 80.3605C47.6541 82.0876 52.0388 81.5599 53.8457 81.0801C58.7604 79.6408 61.5149 76.2425 62.2778 74.7233L66.1325 87.5569L72.6374 79.281C75.6247 74.5794 79.6642 72.2845 81.3104 71.7248Z" fill="#FF6F3F"/>
<path d="M80.5867 77.8418L77.2139 119.821" stroke="#2F3567" stroke-width="0.8"/>
<path d="M58.5433 72.8039C49.0993 72.9958 45.2125 77.8815 44.3291 80.2403C45.9673 81.3916 48.6656 81.5995 50.1112 81.5597C57.5796 81.5597 61.073 76.9619 62.398 74.7229C61.4343 73.0918 59.4267 72.7639 58.5433 72.8039Z" fill="#2F3567"/>
<path d="M66.7353 91.0345L62.2783 74.7227" stroke="#2F3567" stroke-width="0.8"/>
<path d="M44.4492 80.2402C46.0553 85.2377 50.1108 95.6075 55.411 101.709C56.6959 103.189 59.8198 106.123 62.5181 106.507" stroke="#2F3567" stroke-width="0.8"/>
<path d="M42.6426 72.8033C43.028 74.5304 46.0154 79.0402 47.461 81.0791C53.9176 81.8468 58.5834 78.8403 60.1092 77.2411L58.5432 74.8423L58.1818 67.7658C58.1417 66.5664 57.6036 64.1196 55.7727 63.9277C54.9294 63.9677 53.1948 64.6953 53.0021 67.2861V69.5649L42.6426 72.8033Z" fill="white"/>
<path d="M42 72.186C42.3855 73.9131 45.5545 78.6103 47 80.6493C53.5 81.645 58.4742 78.7636 60 77.1644L58.5432 75.0825L58.1818 68.006C58.1417 66.8066 57.6036 64.3599 55.7727 64.168C54.9294 64.2079 53.1948 64.9356 53.0021 67.5263V74.003" stroke="#2F3567" stroke-width="0.8"/>
<path d="M116.364 91.6348V95.8327L122.508 98.3514L116.364 91.6348Z" fill="white"/>
<path d="M96.3684 100.751L97.8139 101.95L102.15 93.9142C100.512 93.4344 99.6204 92.5149 99.3795 92.1151C97.6448 88.5649 94.6414 86.6378 93.3565 86.1181C90.8509 84.8707 89.02 85.6783 88.4177 86.238C84.4666 83.839 81.5515 82.8398 80.5878 82.6401C78.5641 82.4482 78.6203 83.7595 78.9014 84.4392C79.3832 86.0703 82.7159 88.3172 84.322 89.2368C82.491 90.1963 83.3183 92.0354 83.9609 92.835C82.9008 95.0419 84.3224 96.3932 85.1656 96.793C84.6838 96.8889 84.9649 97.6326 85.1656 97.9924C85.8402 99.2397 87.7756 100.271 88.659 100.631C90.2008 101.399 92.594 101.351 93.5978 101.231C94.0796 101.327 94.9229 100.711 95.2842 100.391C95.8624 100.295 96.2479 100.591 96.3684 100.751Z" fill="white" stroke="#2F3567" stroke-width="0.8"/>
<path d="M85.1649 96.7936H86.9718M83.8398 92.5957C84.2414 92.9555 85.4781 93.6752 87.2127 93.6752" stroke="#2F3567" stroke-width="0.8"/>
<path d="M84.2012 89.1152C84.5626 89.3551 85.3817 90.0028 87.2127 90.1947" stroke="#2F3567" stroke-width="0.8"/>
<path d="M88.417 86.3555L90.9466 88.6343L91.4285 88.7543C91.6694 88.7942 92.2476 88.7543 92.6331 88.2745" stroke="#2F3567" stroke-width="0.8"/>
<path d="M109.739 83.2383L122.869 98.5906L103.716 91.1543L96.127 105.067C100.785 107.546 111.618 112.887 117.689 114.423C120.942 115.462 128.458 117.133 132.506 115.502" stroke="#2F3567" stroke-width="0.8"/>
<path d="M89.3809 70.6434L93.8379 65.2461L98.1744 71.8428L93.8379 77.36L89.3809 70.6434Z" fill="white" stroke="#2F3567" stroke-width="0.8"/>
<path d="M98.2949 71.7223L106.004 66.2051L109.498 70.283L101.306 78.7988L98.2949 71.7223Z" fill="white" stroke="#2F3567" stroke-width="0.8"/>
<path d="M93.8389 62.4883V65.127" stroke="#2F3567" stroke-width="0.8"/>
<path d="M106 57.75L106 66.7112" stroke="#2F3567" stroke-width="0.8"/>
<path d="M90.8623 58.6653H92.0669C93.151 58.6653 94.5243 57.6578 94.717 55.5469" stroke="#2F3567" stroke-width="0.8"/>
<path d="M91.8262 47.6309C91.9467 48.3105 91.9708 49.7898 91.1035 50.2695C90.0189 50.8693 89.3929 52.2845 89.7784 53.1481C89.9926 53.6279 90.3802 54.2276 91.1035 54.5874" stroke="#2F3567" stroke-width="0.8"/>
<path d="M84.8395 35.877C82.5266 38.3717 84.7591 42.6736 86.1645 44.5126L89.7781 41.8743C91.5127 44.8488 97.6481 43.8333 100.499 42.9537C98.9571 44.7768 99.0535 47.0717 99.2944 47.9912C99.9689 50.7741 103.109 51.7095 104.595 51.8293V50.9897C106.329 49.7423 108.048 49.9103 108.69 50.1501C110.232 51.0137 110.377 52.5889 110.256 53.2686C109.81 55.7873 107.646 57.1466 106.281 57.5864V61.7843V62.6094C113.894 60.5944 113.468 56.9467 112.063 55.4275C116.111 52.0692 116.962 48.6709 116.881 47.3915C116.785 42.6899 112.023 41.7543 109.654 41.8743C109.365 37.1726 104.715 32.2391 102.426 30.36C97.9934 27.0017 96.4033 30.24 96.1624 32.2789C94.6205 29.9762 92.7093 29.6403 91.9463 29.7602C88.2844 29.8562 88.172 33.3983 88.5735 35.1573C86.6461 34.5816 85.2811 35.3972 84.8395 35.877Z" fill="#2F3567" stroke="#2F3567" stroke-width="0.240919"/>
<path d="M97.6081 62.0257C95.5201 62.5055 91.4641 62.8653 88.8145 61.6659C87.4897 61.0662 84.478 58.1876 84.1166 54.3495C84.0764 53.2701 83.9361 51.2311 84.478 49.0722C84.7992 47.7928 85.6826 45.1621 86.1645 44.3945" stroke="#2F3567" stroke-width="0.8"/>
<path d="M87.4893 46.9122C88.1317 46.6323 89.5371 46.3605 90.0189 47.5119" stroke="#2F3567" stroke-width="0.8"/>
<ellipse cx="88.3331" cy="48.8314" rx="0.722756" ry="1.07946" fill="#2F3567"/>
<path d="M93.7539 48.1114C94.3964 47.8315 95.8017 47.5597 96.2836 48.7111" stroke="#2F3567" stroke-width="0.8"/>
<ellipse cx="94.5978" cy="50.0306" rx="0.722756" ry="1.07946" fill="#2F3567"/>
<path d="M106.5 57.7498C106.018 57.8697 104.5 58.2476 103.5 57.252" stroke="#2F3567" stroke-width="0.8"/>
<path d="M106.642 51.9492C107.485 52.0692 108.81 54.2281 106.28 54.9477" stroke="#2F3567" stroke-width="0.8"/>
</svg>
