<svg width="130" height="117" viewBox="0 0 130 117" fill="none" xmlns="http://www.w3.org/2000/svg">
<path d="M25.3185 41.3945C24.8705 38.9385 26.7571 36.6768 29.2536 36.6768H124.343C126.84 36.6768 128.726 38.9385 128.278 41.3945L115.269 112.718C114.923 114.619 113.267 116 111.334 116H42.2625C40.3302 116 38.6741 114.619 38.3274 112.718L25.3185 41.3945Z" fill="white" stroke="black" stroke-width="2"/>
<rect width="6.75523" height="48.4658" rx="3.37761" transform="matrix(0.865548 0.500827 -0.499174 0.866502 64.8213 0)" fill="#F2B200" stroke="black" stroke-width="2"/>
<rect width="6.76444" height="48.3998" rx="3.38222" transform="matrix(-0.361733 0.932282 -0.931742 -0.36312 113.703 36.3398)" fill="#FF6F3F" stroke="black" stroke-width="2"/>
<path d="M86.1598 84.8672H78.9258C80.6279 83.1613 80.6279 82.7348 82.7556 82.7348C84.4577 82.7348 85.7343 83.8721 86.1598 84.8672Z" fill="black"/>
<path d="M56.9966 63.6786C55.514 62.1954 53.7537 61.0187 51.8163 60.216C49.8789 59.4132 47.8023 59 45.7051 59C43.608 59 41.5314 59.4132 39.5939 60.216C37.6565 61.0187 35.8962 62.1954 34.4137 63.6786L31.3368 66.7555L28.26 63.6786C25.2653 60.6839 21.2036 59.0016 16.9685 59.0016C12.7334 59.0016 8.67175 60.6839 5.67707 63.6786C2.68239 66.6733 1 70.735 1 74.9701C1 79.2052 2.68239 83.2668 5.67707 86.2615L8.75392 89.3384L31.3368 111.921L53.9197 89.3384L56.9966 86.2615C58.4798 84.779 59.6565 83.0187 60.4592 81.0813C61.262 79.1438 61.6752 77.0672 61.6752 74.9701C61.6752 72.8729 61.262 70.7963 60.4592 68.8589C59.6565 66.9215 58.4798 65.1612 56.9966 63.6786Z" fill="white" stroke="black" stroke-width="1.99041" stroke-linecap="round" stroke-linejoin="round" stroke-dasharray="3.98 3.98"/>
<path d="M28.4379 76.9578C28.4379 77.6298 28.5039 78.2478 28.6359 78.8118C28.7679 79.3758 28.9539 79.8618 29.1939 80.2698C29.4459 80.6778 29.7459 80.9958 30.0939 81.2238C30.4419 81.4398 30.8259 81.5478 31.2459 81.5478C31.6899 81.5478 32.0799 81.4398 32.4159 81.2238C32.7639 80.9958 33.0579 80.6778 33.2979 80.2698C33.5499 79.8618 33.7419 79.3758 33.8739 78.8118C34.0059 78.2478 34.0719 77.6298 34.0719 76.9578C34.0719 76.2858 34.0059 75.6678 33.8739 75.1038C33.7419 74.5398 33.5499 74.0538 33.2979 73.6458C33.0579 73.2378 32.7639 72.9258 32.4159 72.7098C32.0799 72.4818 31.6899 72.3678 31.2459 72.3678C30.8259 72.3678 30.4419 72.4818 30.0939 72.7098C29.7459 72.9258 29.4459 73.2378 29.1939 73.6458C28.9539 74.0538 28.7679 74.5398 28.6359 75.1038C28.5039 75.6678 28.4379 76.2858 28.4379 76.9578ZM26.3499 76.9578C26.3499 75.6498 26.5539 74.5098 26.9619 73.5378C27.3819 72.5658 27.9579 71.8098 28.6899 71.2698C29.4339 70.7298 30.2859 70.4598 31.2459 70.4598C32.2299 70.4598 33.0879 70.7298 33.8199 71.2698C34.5639 71.8098 35.1399 72.5658 35.5479 73.5378C35.9559 74.5098 36.1599 75.6498 36.1599 76.9578C36.1599 78.2658 35.9559 79.4058 35.5479 80.3778C35.1399 81.3498 34.5639 82.1058 33.8199 82.6458C33.0879 83.1858 32.2299 83.4558 31.2459 83.4558C30.2859 83.4558 29.4339 83.1858 28.6899 82.6458C27.9579 82.1058 27.3819 81.3498 26.9619 80.3778C26.5539 79.4058 26.3499 78.2658 26.3499 76.9578Z" fill="#FF6F3F"/>
<path d="M20.8083 87.5418C20.8083 87.3178 20.8883 87.1298 21.0483 86.9778C21.2163 86.8258 21.4083 86.7498 21.6243 86.7498C21.8563 86.7498 22.0483 86.8258 22.2003 86.9778C22.3603 87.1298 22.4403 87.3178 22.4403 87.5418C22.4403 87.7578 22.3603 87.9458 22.2003 88.1058C22.0483 88.2578 21.8563 88.3338 21.6243 88.3338C21.4083 88.3338 21.2163 88.2578 21.0483 88.1058C20.8883 87.9458 20.8083 87.7578 20.8083 87.5418ZM20.9883 89.7378H22.2603V95.2578H20.9883V89.7378ZM23.2758 89.7378H26.4078V90.8778H23.2758V89.7378ZM24.1998 87.8178H25.4838V95.2578H24.1998V87.8178ZM29.7016 95.3778C29.1416 95.3778 28.6456 95.2578 28.2136 95.0178C27.7896 94.7778 27.4616 94.4418 27.2296 94.0098C26.9976 93.5778 26.8816 93.0738 26.8816 92.4978C26.8816 91.9138 26.9976 91.4058 27.2296 90.9738C27.4696 90.5418 27.8056 90.2098 28.2376 89.9778C28.6696 89.7378 29.1776 89.6178 29.7616 89.6178C30.3456 89.6178 30.8416 89.7298 31.2496 89.9538C31.6576 90.1778 31.9696 90.5018 32.1856 90.9258C32.4096 91.3418 32.5216 91.8458 32.5216 92.4378C32.5216 92.5018 32.5176 92.5698 32.5096 92.6418C32.5096 92.7138 32.5056 92.7658 32.4976 92.7978H27.6496V91.9098H31.3936L30.9976 92.4618C31.0216 92.4138 31.0456 92.3498 31.0696 92.2698C31.1016 92.1818 31.1176 92.1098 31.1176 92.0538C31.1176 91.7578 31.0576 91.5018 30.9376 91.2858C30.8256 91.0698 30.6656 90.9018 30.4576 90.7818C30.2576 90.6618 30.0216 90.6018 29.7496 90.6018C29.4216 90.6018 29.1416 90.6738 28.9096 90.8178C28.6776 90.9618 28.5016 91.1698 28.3816 91.4418C28.2616 91.7138 28.1976 92.0498 28.1896 92.4498C28.1896 92.8498 28.2496 93.1898 28.3696 93.4698C28.4896 93.7418 28.6656 93.9498 28.8976 94.0938C29.1376 94.2378 29.4256 94.3098 29.7616 94.3098C30.1136 94.3098 30.4216 94.2378 30.6856 94.0938C30.9496 93.9498 31.1696 93.7298 31.3456 93.4338L32.4616 93.8898C32.1736 94.3858 31.8016 94.7578 31.3456 95.0058C30.8896 95.2538 30.3416 95.3778 29.7016 95.3778ZM41.6547 91.7538V95.2578H40.3587V91.8978C40.3587 91.4818 40.2827 91.1738 40.1307 90.9738C39.9867 90.7658 39.7547 90.6618 39.4347 90.6618C39.2187 90.6618 39.0267 90.7098 38.8587 90.8058C38.6987 90.9018 38.5707 91.0418 38.4747 91.2258C38.3867 91.4098 38.3427 91.6338 38.3427 91.8978V95.2578H37.0467V91.8978C37.0467 91.4818 36.9707 91.1738 36.8187 90.9738C36.6747 90.7658 36.4427 90.6618 36.1227 90.6618C35.8987 90.6618 35.7027 90.7098 35.5347 90.8058C35.3747 90.9018 35.2507 91.0418 35.1627 91.2258C35.0747 91.4098 35.0307 91.6338 35.0307 91.8978V95.2578H33.7587V89.7378H35.0307V90.5418C35.1907 90.2378 35.3987 90.0098 35.6547 89.8578C35.9187 89.6978 36.2267 89.6178 36.5787 89.6178C36.9867 89.6178 37.3227 89.7018 37.5867 89.8698C37.8587 90.0378 38.0547 90.2818 38.1747 90.6018C38.3667 90.2818 38.6067 90.0378 38.8947 89.8698C39.1907 89.7018 39.5267 89.6178 39.9027 89.6178C40.2947 89.6178 40.6187 89.7018 40.8747 89.8698C41.1387 90.0298 41.3347 90.2698 41.4627 90.5898C41.5907 90.9098 41.6547 91.2978 41.6547 91.7538Z" fill="#929292"/>
<ellipse cx="68.2878" cy="71.2202" rx="2.12766" ry="2.13235" fill="black"/>
<ellipse cx="92.9685" cy="71.2202" rx="2.12766" ry="2.13235" fill="black"/>
</svg>
