<svg width="122" height="117" viewBox="0 0 122 117" fill="none" xmlns="http://www.w3.org/2000/svg">
<path d="M17.1798 41.3935C16.7319 38.9375 18.6184 36.6758 21.1149 36.6758H116.205C118.701 36.6758 120.588 38.9375 120.14 41.3935L107.131 112.717C106.784 114.618 105.128 115.999 103.196 115.999H34.1238C32.1915 115.999 30.5355 114.618 30.1888 112.717L17.1798 41.3935Z" fill="white" stroke="black" stroke-width="2"/>
<rect width="6.75523" height="48.4658" rx="3.37761" transform="matrix(0.865548 0.500827 -0.499174 0.866502 56.6816 0)" fill="#F2B200" stroke="black" stroke-width="2"/>
<rect width="6.76444" height="48.3998" rx="3.38222" transform="matrix(-0.361733 0.932282 -0.931742 -0.36312 105.564 36.3398)" fill="#FF6F3F" stroke="black" stroke-width="2"/>
<path d="M78.0212 84.8672H70.7871C72.4892 83.1613 72.4892 82.7348 74.6169 82.7348C76.319 82.7348 77.5956 83.8721 78.0212 84.8672Z" fill="black"/>
<ellipse cx="23.9787" cy="79.0587" rx="22.9787" ry="23.0294" fill="white" stroke="black" stroke-width="2" stroke-dasharray="4 4"/>
<path d="M21.3002 69.9578C21.3002 70.6298 21.3662 71.2478 21.4982 71.8118C21.6302 72.3758 21.8162 72.8618 22.0562 73.2698C22.3082 73.6778 22.6082 73.9958 22.9562 74.2238C23.3042 74.4398 23.6882 74.5478 24.1082 74.5478C24.5522 74.5478 24.9422 74.4398 25.2782 74.2238C25.6262 73.9958 25.9202 73.6778 26.1602 73.2698C26.4122 72.8618 26.6042 72.3758 26.7362 71.8118C26.8682 71.2478 26.9342 70.6298 26.9342 69.9578C26.9342 69.2858 26.8682 68.6678 26.7362 68.1038C26.6042 67.5398 26.4122 67.0538 26.1602 66.6458C25.9202 66.2378 25.6262 65.9258 25.2782 65.7098C24.9422 65.4818 24.5522 65.3678 24.1082 65.3678C23.6882 65.3678 23.3042 65.4818 22.9562 65.7098C22.6082 65.9258 22.3082 66.2378 22.0562 66.6458C21.8162 67.0538 21.6302 67.5398 21.4982 68.1038C21.3662 68.6678 21.3002 69.2858 21.3002 69.9578ZM19.2122 69.9578C19.2122 68.6498 19.4162 67.5098 19.8242 66.5378C20.2442 65.5658 20.8202 64.8098 21.5522 64.2698C22.2962 63.7298 23.1482 63.4598 24.1082 63.4598C25.0922 63.4598 25.9502 63.7298 26.6822 64.2698C27.4262 64.8098 28.0022 65.5658 28.4102 66.5378C28.8182 67.5098 29.0222 68.6498 29.0222 69.9578C29.0222 71.2658 28.8182 72.4058 28.4102 73.3778C28.0022 74.3498 27.4262 75.1058 26.6822 75.6458C25.9502 76.1858 25.0922 76.4558 24.1082 76.4558C23.1482 76.4558 22.2962 76.1858 21.5522 75.6458C20.8202 75.1058 20.2442 74.3498 19.8242 73.3778C19.4162 72.4058 19.2122 71.2658 19.2122 69.9578Z" fill="#FF6F3F"/>
<path d="M13.6706 83.5418C13.6706 83.3178 13.7506 83.1298 13.9106 82.9778C14.0786 82.8258 14.2706 82.7498 14.4866 82.7498C14.7186 82.7498 14.9106 82.8258 15.0626 82.9778C15.2226 83.1298 15.3026 83.3178 15.3026 83.5418C15.3026 83.7578 15.2226 83.9458 15.0626 84.1058C14.9106 84.2578 14.7186 84.3338 14.4866 84.3338C14.2706 84.3338 14.0786 84.2578 13.9106 84.1058C13.7506 83.9458 13.6706 83.7578 13.6706 83.5418ZM13.8506 85.7378H15.1226V91.2578H13.8506V85.7378ZM16.1381 85.7378H19.2701V86.8778H16.1381V85.7378ZM17.0621 83.8178H18.3461V91.2578H17.0621V83.8178ZM22.5639 91.3778C22.0039 91.3778 21.5079 91.2578 21.0759 91.0178C20.6519 90.7778 20.3239 90.4418 20.0919 90.0098C19.8599 89.5778 19.7439 89.0738 19.7439 88.4978C19.7439 87.9138 19.8599 87.4058 20.0919 86.9738C20.3319 86.5418 20.6679 86.2098 21.0999 85.9778C21.5319 85.7378 22.0399 85.6178 22.6239 85.6178C23.2079 85.6178 23.7039 85.7298 24.1119 85.9538C24.5199 86.1778 24.8319 86.5018 25.0479 86.9258C25.2719 87.3418 25.3839 87.8458 25.3839 88.4378C25.3839 88.5018 25.3799 88.5698 25.3719 88.6418C25.3719 88.7138 25.3679 88.7658 25.3599 88.7978H20.5119V87.9098H24.2559L23.8599 88.4618C23.8839 88.4138 23.9079 88.3498 23.9319 88.2698C23.9639 88.1818 23.9799 88.1098 23.9799 88.0538C23.9799 87.7578 23.9199 87.5018 23.7999 87.2858C23.6879 87.0698 23.5279 86.9018 23.3199 86.7818C23.1199 86.6618 22.8839 86.6018 22.6119 86.6018C22.2839 86.6018 22.0039 86.6738 21.7719 86.8178C21.5399 86.9618 21.3639 87.1698 21.2439 87.4418C21.1239 87.7138 21.0599 88.0498 21.0519 88.4498C21.0519 88.8498 21.1119 89.1898 21.2319 89.4698C21.3519 89.7418 21.5279 89.9498 21.7599 90.0938C21.9999 90.2378 22.2879 90.3098 22.6239 90.3098C22.9759 90.3098 23.2839 90.2378 23.5479 90.0938C23.8119 89.9498 24.0319 89.7298 24.2079 89.4338L25.3239 89.8898C25.0359 90.3858 24.6639 90.7578 24.2079 91.0058C23.7519 91.2538 23.2039 91.3778 22.5639 91.3778ZM34.517 87.7538V91.2578H33.221V87.8978C33.221 87.4818 33.145 87.1738 32.993 86.9738C32.849 86.7658 32.617 86.6618 32.297 86.6618C32.081 86.6618 31.889 86.7098 31.721 86.8058C31.561 86.9018 31.433 87.0418 31.337 87.2258C31.249 87.4098 31.205 87.6338 31.205 87.8978V91.2578H29.909V87.8978C29.909 87.4818 29.833 87.1738 29.681 86.9738C29.537 86.7658 29.305 86.6618 28.985 86.6618C28.761 86.6618 28.565 86.7098 28.397 86.8058C28.237 86.9018 28.113 87.0418 28.025 87.2258C27.937 87.4098 27.893 87.6338 27.893 87.8978V91.2578H26.621V85.7378H27.893V86.5418C28.053 86.2378 28.261 86.0098 28.517 85.8578C28.781 85.6978 29.089 85.6178 29.441 85.6178C29.849 85.6178 30.185 85.7018 30.449 85.8698C30.721 86.0378 30.917 86.2818 31.037 86.6018C31.229 86.2818 31.469 86.0378 31.757 85.8698C32.053 85.7018 32.389 85.6178 32.765 85.6178C33.157 85.6178 33.481 85.7018 33.737 85.8698C34.001 86.0298 34.197 86.2698 34.325 86.5898C34.453 86.9098 34.517 87.2978 34.517 87.7538Z" fill="#929292"/>
<ellipse cx="60.1491" cy="71.2202" rx="2.12766" ry="2.13235" fill="black"/>
<ellipse cx="84.8298" cy="71.2202" rx="2.12766" ry="2.13235" fill="black"/>
</svg>
