<svg width="21" height="21" viewBox="0 0 21 21" fill="none" xmlns="http://www.w3.org/2000/svg">
<path d="M17.8193 12.7227C17.8193 13.1647 17.6437 13.5886 17.3312 13.9012C17.0186 14.2137 16.5947 14.3893 16.1527 14.3893H6.15267L2.81934 17.7227V4.38932C2.81934 3.9473 2.99493 3.52337 3.30749 3.21081C3.62005 2.89825 4.04398 2.72266 4.486 2.72266H16.1527C16.5947 2.72266 17.0186 2.89825 17.3312 3.21081C17.6437 3.52337 17.8193 3.9473 17.8193 4.38932V12.7227Z" stroke="#2F3567" stroke-width="1.5" stroke-linecap="round" stroke-linejoin="round"/>
<path d="M9.09 10.22V9.85C9.09 9.48333 9.16 9.16333 9.3 8.89C9.44 8.61 9.69 8.34 10.05 8.08C10.1967 7.97333 10.3467 7.86667 10.5 7.76C10.6533 7.65333 10.7833 7.52333 10.89 7.37C11.0033 7.21667 11.06 7.02333 11.06 6.79C11.06 6.50333 10.9567 6.26667 10.75 6.08C10.55 5.88667 10.2233 5.79 9.77 5.79C9.45 5.79 9.17 5.84 8.93 5.94C8.69 6.04 8.48667 6.16667 8.32 6.32L8.15 6.22V5.31C8.46333 5.15 8.77 5.03667 9.07 4.97C9.37667 4.90333 9.66667 4.87 9.94 4.87C10.6133 4.87 11.1367 5.04333 11.51 5.39C11.8833 5.73 12.07 6.17667 12.07 6.73C12.07 7.04333 12.0133 7.31333 11.9 7.54C11.7933 7.76667 11.6533 7.96333 11.48 8.13C11.3067 8.29667 11.1167 8.45333 10.91 8.6C10.7433 8.72 10.5933 8.84 10.46 8.96C10.3333 9.07333 10.23 9.2 10.15 9.34C10.0767 9.48 10.04 9.65333 10.04 9.86V10.22H9.09ZM9.56 12.12C9.36667 12.12 9.20667 12.0633 9.08 11.95C8.95333 11.8367 8.89 11.67 8.89 11.45C8.89 11.2367 8.95333 11.0733 9.08 10.96C9.20667 10.84 9.36667 10.78 9.56 10.78C9.74667 10.78 9.90333 10.84 10.03 10.96C10.1633 11.0733 10.23 11.2367 10.23 11.45C10.23 11.67 10.1633 11.8367 10.03 11.95C9.90333 12.0633 9.74667 12.12 9.56 12.12Z" fill="#FF6F3F"/>
</svg>
