<svg width="20" height="20" viewBox="0 0 20 20" fill="none" xmlns="http://www.w3.org/2000/svg">
<path d="M13 15.5V14C13 13.2044 12.6839 12.4413 12.1213 11.8787C11.5587 11.3161 10.7956 11 10 11H4C3.20435 11 2.44129 11.3161 1.87868 11.8787C1.31607 12.4413 1 13.2044 1 14V15.5" stroke="#2F3567" stroke-width="1.35" stroke-linecap="round" stroke-linejoin="round"/>
<path d="M18.9122 14.686V16.0303C18.9127 16.1551 18.8872 16.2787 18.8372 16.393C18.7872 16.5074 18.7139 16.61 18.6219 16.6944C18.5299 16.7787 18.4214 16.843 18.3031 16.883C18.1849 16.9229 18.0596 16.9378 17.9353 16.9266C16.5564 16.7767 15.2318 16.3055 14.0681 15.5508C12.9853 14.8628 12.0674 13.9449 11.3794 12.8621C10.622 11.6931 10.1507 10.3621 10.0036 8.97694C9.99244 8.85302 10.0072 8.72813 10.0469 8.61021C10.0866 8.4923 10.1504 8.38394 10.2343 8.29205C10.3182 8.20015 10.4203 8.12673 10.5341 8.07646C10.6479 8.02618 10.771 8.00016 10.8954 8.00004H12.2397C12.4572 7.9979 12.6681 8.07491 12.833 8.21672C12.9978 8.35853 13.1055 8.55546 13.136 8.77081C13.1927 9.20103 13.298 9.62345 13.4497 10.03C13.51 10.1904 13.523 10.3647 13.4873 10.5323C13.4515 10.6999 13.3685 10.8537 13.248 10.9755L12.6789 11.5447C13.3168 12.6665 14.2457 13.5954 15.3676 14.2334L15.9367 13.6643C16.0586 13.5438 16.2124 13.4607 16.38 13.425C16.5475 13.3893 16.7219 13.4023 16.8823 13.4626C17.2888 13.6143 17.7112 13.7195 18.1415 13.7763C18.3591 13.807 18.558 13.9166 18.7001 14.0844C18.8422 14.2521 18.9177 14.4662 18.9122 14.686Z" fill="#FF6F3F" stroke="#2F3567" stroke-linecap="round" stroke-linejoin="round"/>
<path d="M7 8C8.65685 8 10 6.65685 10 5C10 3.34315 8.65685 2 7 2C5.34315 2 4 3.34315 4 5C4 6.65685 5.34315 8 7 8Z" fill="#FF6F3F" stroke="#2F3567" stroke-width="1.35" stroke-linecap="round" stroke-linejoin="round"/>
</svg>
