<svg width="40" height="40" viewBox="0 0 40 40" fill="none" xmlns="http://www.w3.org/2000/svg">
<circle cx="20" cy="20" r="20" fill="white"/>
<g clip-path="url(#clip0_6616_4656)">
<path d="M26.3626 22.4264C26.2517 22.6778 26.2186 22.9566 26.2676 23.2269C26.3166 23.4973 26.4455 23.7467 26.6376 23.9431L26.6876 23.9931C26.8426 24.1479 26.9655 24.3317 27.0494 24.534C27.1333 24.7364 27.1764 24.9532 27.1764 25.1723C27.1764 25.3913 27.1333 25.6082 27.0494 25.8105C26.9655 26.0128 26.8426 26.1966 26.6876 26.3514C26.5328 26.5064 26.349 26.6293 26.1467 26.7132C25.9444 26.7971 25.7275 26.8402 25.5085 26.8402C25.2894 26.8402 25.0726 26.7971 24.8702 26.7132C24.6679 26.6293 24.4841 26.5064 24.3293 26.3514L24.2793 26.3014C24.0829 26.1093 23.8335 25.9804 23.5631 25.9314C23.2928 25.8824 23.014 25.9155 22.7626 26.0264C22.5162 26.1321 22.3059 26.3075 22.1579 26.531C22.0098 26.7546 21.9304 27.0166 21.9293 27.2848V27.4264C21.9293 27.8685 21.7537 28.2924 21.4411 28.6049C21.1286 28.9175 20.7047 29.0931 20.2626 29.0931C19.8206 29.0931 19.3967 28.9175 19.0841 28.6049C18.7716 28.2924 18.596 27.8685 18.596 27.4264V27.3514C18.5895 27.0756 18.5002 26.8081 18.3397 26.5837C18.1792 26.3593 17.9549 26.1883 17.696 26.0931C17.4446 25.9822 17.1658 25.9491 16.8955 25.9981C16.6251 26.0471 16.3757 26.176 16.1793 26.3681L16.1293 26.4181C15.9745 26.5731 15.7907 26.696 15.5884 26.7799C15.386 26.8637 15.1692 26.9069 14.9501 26.9069C14.7311 26.9069 14.5142 26.8637 14.3119 26.7799C14.1096 26.696 13.9258 26.5731 13.771 26.4181C13.616 26.2633 13.4931 26.0795 13.4092 25.8772C13.3253 25.6748 13.2822 25.458 13.2822 25.2389C13.2822 25.0199 13.3253 24.803 13.4092 24.6007C13.4931 24.3984 13.616 24.2146 13.771 24.0598L13.821 24.0098C14.0131 23.8134 14.142 23.5639 14.191 23.2936C14.24 23.0233 14.2069 22.7444 14.096 22.4931C13.9903 22.2466 13.8149 22.0364 13.5914 21.8884C13.3678 21.7403 13.1058 21.6608 12.8376 21.6598H12.696C12.2539 21.6598 11.83 21.4842 11.5175 21.1716C11.2049 20.859 11.0293 20.4351 11.0293 19.9931C11.0293 19.5511 11.2049 19.1271 11.5175 18.8146C11.83 18.502 12.2539 18.3264 12.696 18.3264H12.771C13.0468 18.32 13.3143 18.2307 13.5387 18.0702C13.7631 17.9097 13.9341 17.6854 14.0293 17.4264C14.1402 17.1751 14.1733 16.8963 14.1243 16.6259C14.0753 16.3556 13.9464 16.1062 13.7543 15.9098L13.7043 15.8598C13.5493 15.705 13.4264 15.5212 13.3425 15.3188C13.2587 15.1165 13.2155 14.8996 13.2155 14.6806C13.2155 14.4616 13.2587 14.2447 13.3425 14.0424C13.4264 13.84 13.5493 13.6562 13.7043 13.5014C13.8591 13.3465 14.0429 13.2235 14.2452 13.1397C14.4476 13.0558 14.6644 13.0126 14.8835 13.0126C15.1025 13.0126 15.3194 13.0558 15.5217 13.1397C15.724 13.2235 15.9078 13.3465 16.0626 13.5014L16.1126 13.5514C16.309 13.7435 16.5585 13.8724 16.8288 13.9214C17.0991 13.9705 17.378 13.9374 17.6293 13.8264H17.696C17.9424 13.7208 18.1526 13.5454 18.3007 13.3218C18.4488 13.0982 18.5282 12.8363 18.5293 12.5681V12.4264C18.5293 11.9844 18.7049 11.5605 19.0175 11.2479C19.33 10.9354 19.7539 10.7598 20.196 10.7598C20.638 10.7598 21.0619 10.9354 21.3745 11.2479C21.687 11.5605 21.8626 11.9844 21.8626 12.4264V12.5014C21.8637 12.7696 21.9432 13.0316 22.0912 13.2552C22.2393 13.4787 22.4495 13.6541 22.696 13.7598C22.9473 13.8707 23.2261 13.9038 23.4965 13.8548C23.7668 13.8058 24.0162 13.6769 24.2126 13.4848L24.2626 13.4348C24.4174 13.2798 24.6012 13.1569 24.8036 13.073C25.0059 12.9891 25.2228 12.946 25.4418 12.946C25.6608 12.946 25.8777 12.9891 26.08 13.073C26.2824 13.1569 26.4662 13.2798 26.621 13.4348C26.7759 13.5896 26.8989 13.7734 26.9827 13.9757C27.0666 14.178 27.1098 14.3949 27.1098 14.6139C27.1098 14.833 27.0666 15.0498 26.9827 15.2522C26.8989 15.4545 26.7759 15.6383 26.621 15.7931L26.571 15.8431C26.3788 16.0395 26.25 16.2889 26.201 16.5593C26.1519 16.8296 26.185 17.1084 26.296 17.3598V17.4264C26.4016 17.6729 26.577 17.8831 26.8006 18.0312C27.0242 18.1792 27.2861 18.2587 27.5543 18.2598H27.696C28.138 18.2598 28.5619 18.4354 28.8745 18.7479C29.187 19.0605 29.3626 19.4844 29.3626 19.9264C29.3626 20.3685 29.187 20.7924 28.8745 21.1049C28.5619 21.4175 28.138 21.5931 27.696 21.5931H27.621C27.3528 21.5942 27.0908 21.6736 26.8672 21.8217C26.6437 21.9698 26.4683 22.18 26.3626 22.4264Z" stroke="#2F3567" stroke-width="1.5" stroke-linecap="round" stroke-linejoin="round"/>
<path d="M23.5625 16.4375L17.4375 22.5625" stroke="#FF6F3F" stroke-linecap="round" stroke-linejoin="round"/>
<path d="M18.0938 18.1875C18.6978 18.1875 19.1875 17.6978 19.1875 17.0938C19.1875 16.4897 18.6978 16 18.0938 16C17.4897 16 17 16.4897 17 17.0938C17 17.6978 17.4897 18.1875 18.0938 18.1875Z" stroke="#FF6F3F" stroke-linecap="round" stroke-linejoin="round"/>
<path d="M22.9062 23C23.5103 23 24 22.5103 24 21.9062C24 21.3022 23.5103 20.8125 22.9062 20.8125C22.3022 20.8125 21.8125 21.3022 21.8125 21.9062C21.8125 22.5103 22.3022 23 22.9062 23Z" stroke="#FF6F3F" stroke-linecap="round" stroke-linejoin="round"/>
</g>
<defs>
<clipPath id="clip0_6616_4656">
<rect width="20" height="20" fill="white" transform="translate(10.1963 9.92578)"/>
</clipPath>
</defs>
</svg>
