<svg width="40" height="40" viewBox="0 0 40 40" fill="none" xmlns="http://www.w3.org/2000/svg">
<circle cx="20" cy="20" r="20" fill="white"/>
<path d="M27.4997 13.334H12.4997C11.5792 13.334 10.833 14.0802 10.833 15.0007V25.0007C10.833 25.9211 11.5792 26.6673 12.4997 26.6673H27.4997C28.4202 26.6673 29.1663 25.9211 29.1663 25.0007V15.0007C29.1663 14.0802 28.4202 13.334 27.4997 13.334Z" stroke="#2F3567" stroke-width="1.5" stroke-linecap="round" stroke-linejoin="round"/>
<path d="M21.2942 24.774C21.2173 24.7745 21.1412 24.759 21.0706 24.7285C21 24.6979 20.9365 24.653 20.8842 24.5967L17.338 20.7845C17.2483 20.6865 17.1902 20.5638 17.1714 20.4323C17.1526 20.3008 17.174 20.1667 17.2327 20.0475C17.2912 19.9289 17.3848 19.8312 17.5008 19.7677C17.6168 19.7043 17.7496 19.6781 17.881 19.6929C18.2465 19.7594 18.6218 19.7495 18.9833 19.6637C19.3448 19.5778 19.6845 19.418 19.981 19.1942C20.1672 19.0283 20.3137 18.8226 20.4096 18.5924C20.5056 18.3622 20.5484 18.1134 20.5351 17.8644C20.5351 17.1551 20.3301 16.3406 18.7232 16.3406H17.5541C17.4071 16.3406 17.2662 16.2822 17.1623 16.1783C17.0584 16.0744 17 15.9335 17 15.7865C17 15.6396 17.0584 15.4986 17.1623 15.3947C17.2662 15.2908 17.4071 15.2324 17.5541 15.2324H18.7011C20.5573 15.2324 21.6212 16.191 21.6212 17.8644C21.6367 18.2678 21.564 18.6697 21.408 19.042C21.252 19.4143 21.0165 19.748 20.718 20.0198C20.1897 20.4671 19.535 20.7382 18.8451 20.7956L21.6821 23.8431C21.7553 23.922 21.804 24.0206 21.8221 24.1267C21.8402 24.2328 21.827 24.3419 21.784 24.4407C21.7411 24.5394 21.6704 24.6235 21.5805 24.6827C21.4905 24.7419 21.3853 24.7736 21.2776 24.774H21.2942Z" fill="#FF6F3F" stroke="#FF6F3F" stroke-width="0.3"/>
<path d="M22.4199 16.3406H18.4525C18.3056 16.3406 18.1646 16.2822 18.0607 16.1783C17.9568 16.0744 17.8984 15.9335 17.8984 15.7865C17.8984 15.6396 17.9568 15.4986 18.0607 15.3947C18.1646 15.2908 18.3056 15.2324 18.4525 15.2324H22.4199C22.5668 15.2324 22.7078 15.2908 22.8117 15.3947C22.9156 15.4986 22.974 15.6396 22.974 15.7865C22.974 15.9335 22.9156 16.0744 22.8117 16.1783C22.7078 16.2822 22.5668 16.3406 22.4199 16.3406Z" fill="#FF6F3F" stroke="#FF6F3F" stroke-width="0.3"/>
<path d="M22.446 18.4793H17.6088C17.4618 18.4793 17.3209 18.4209 17.217 18.317C17.1131 18.2131 17.0547 18.0721 17.0547 17.9252C17.0547 17.7782 17.1131 17.6373 17.217 17.5334C17.3209 17.4295 17.4618 17.3711 17.6088 17.3711H22.446C22.593 17.3711 22.7339 17.4295 22.8379 17.5334C22.9418 17.6373 23.0001 17.7782 23.0001 17.9252C23.0001 18.0721 22.9418 18.2131 22.8379 18.317C22.7339 18.4209 22.593 18.4793 22.446 18.4793Z" fill="#FF6F3F" stroke="#FF6F3F" stroke-width="0.3"/>
</svg>
