<svg width="40" height="40" viewBox="0 0 40 40" fill="none" xmlns="http://www.w3.org/2000/svg">
<circle cx="20" cy="20" r="20" fill="white"/>
<path d="M10.833 13.334V18.334H15.833" stroke="#FF6F3F" stroke-width="1.5" stroke-linecap="round" stroke-linejoin="round"/>
<path d="M27.0747 17.5C26.652 16.3056 25.9337 15.2378 24.9868 14.3962C24.0398 13.5545 22.8951 12.9665 21.6594 12.6869C20.4238 12.4073 19.1374 12.4453 17.9203 12.7973C16.7033 13.1493 15.5953 13.8039 14.6997 14.7L10.833 18.3333M29.1663 21.6666L25.2997 25.3C24.4041 26.1961 23.296 26.8506 22.079 27.2027C20.862 27.5547 19.5756 27.5927 18.3399 27.3131C17.1042 27.0335 15.9595 26.4455 15.0126 25.6038C14.0656 24.7621 13.3473 23.6943 12.9247 22.5" stroke="#2F3567" stroke-width="1.5" stroke-linecap="round" stroke-linejoin="round"/>
<path d="M29.167 26.666V21.666H24.167" stroke="#FF6F3F" stroke-width="1.5" stroke-linecap="round" stroke-linejoin="round"/>
</svg>
