<svg width="156" height="160" viewBox="0 0 156 160" fill="none" xmlns="http://www.w3.org/2000/svg">
<path d="M25.1136 118.273V127H24.0568V118.273H25.1136ZM27.0962 127V120.455H28.0678V121.477H28.1531C28.2894 121.128 28.5096 120.857 28.8136 120.663C29.1175 120.467 29.4826 120.369 29.9087 120.369C30.3406 120.369 30.6999 120.467 30.9869 120.663C31.2766 120.857 31.5025 121.128 31.6644 121.477H31.7326C31.9002 121.139 32.1516 120.871 32.4869 120.672C32.8221 120.47 33.2241 120.369 33.6928 120.369C34.2781 120.369 34.7567 120.553 35.1289 120.919C35.5011 121.283 35.6871 121.849 35.6871 122.619V127H34.6815V122.619C34.6815 122.136 34.5494 121.791 34.2852 121.584C34.021 121.376 33.7099 121.273 33.3519 121.273C32.8917 121.273 32.5352 121.412 32.2823 121.69C32.0295 121.966 31.9031 122.315 31.9031 122.739V127H30.8803V122.517C30.8803 122.145 30.7596 121.845 30.5181 121.618C30.2766 121.388 29.9656 121.273 29.5849 121.273C29.3235 121.273 29.0792 121.342 28.8519 121.482C28.6275 121.621 28.4457 121.814 28.3065 122.061C28.1701 122.305 28.1019 122.588 28.1019 122.909V127H27.0962ZM39.4521 127.153C39.0373 127.153 38.6609 127.075 38.3228 126.919C37.9847 126.76 37.7163 126.531 37.5174 126.233C37.3185 125.932 37.2191 125.568 37.2191 125.142C37.2191 124.767 37.293 124.463 37.4407 124.23C37.5884 123.994 37.7859 123.81 38.033 123.676C38.2802 123.543 38.5529 123.443 38.8512 123.378C39.1523 123.31 39.4549 123.256 39.7589 123.216C40.1566 123.165 40.479 123.126 40.7262 123.101C40.9762 123.072 41.158 123.026 41.2717 122.96C41.3881 122.895 41.4464 122.781 41.4464 122.619V122.585C41.4464 122.165 41.3313 121.838 41.1012 121.605C40.8739 121.372 40.5288 121.256 40.0657 121.256C39.5856 121.256 39.2092 121.361 38.9364 121.571C38.6637 121.781 38.4719 122.006 38.3612 122.244L37.4066 121.903C37.5771 121.506 37.8043 121.196 38.0884 120.974C38.3754 120.75 38.6879 120.594 39.0259 120.506C39.3668 120.415 39.7021 120.369 40.0316 120.369C40.2418 120.369 40.4833 120.395 40.756 120.446C41.0316 120.494 41.2972 120.595 41.5529 120.749C41.8114 120.902 42.0259 121.134 42.1964 121.443C42.3668 121.753 42.4521 122.168 42.4521 122.688V127H41.4464V126.114H41.3952C41.3271 126.256 41.2134 126.408 41.0543 126.57C40.8952 126.732 40.6836 126.869 40.4194 126.983C40.1552 127.097 39.8327 127.153 39.4521 127.153ZM39.6055 126.25C40.0032 126.25 40.3384 126.172 40.6112 126.016C40.8867 125.859 41.0941 125.658 41.2333 125.411C41.3754 125.163 41.4464 124.903 41.4464 124.631V123.71C41.4038 123.761 41.31 123.808 41.1651 123.851C41.0231 123.891 40.8583 123.926 40.6708 123.957C40.4862 123.986 40.3058 124.011 40.1296 124.034C39.9563 124.054 39.8157 124.071 39.7077 124.085C39.4464 124.119 39.2021 124.175 38.9748 124.251C38.7504 124.325 38.5685 124.437 38.4293 124.588C38.293 124.736 38.2248 124.937 38.2248 125.193C38.2248 125.543 38.354 125.807 38.6126 125.986C38.8739 126.162 39.2049 126.25 39.6055 126.25ZM46.9297 129.591C46.4439 129.591 46.0263 129.528 45.6768 129.403C45.3274 129.281 45.0362 129.119 44.8033 128.918C44.5732 128.719 44.3899 128.506 44.2536 128.278L45.0547 127.716C45.1456 127.835 45.2607 127.972 45.3999 128.125C45.5391 128.281 45.7294 128.416 45.9709 128.53C46.2152 128.646 46.5348 128.705 46.9297 128.705C47.4581 128.705 47.8942 128.577 48.2379 128.321C48.5817 128.065 48.7536 127.665 48.7536 127.119V125.79H48.6683C48.5945 125.909 48.4893 126.057 48.353 126.233C48.2195 126.406 48.0263 126.561 47.7734 126.697C47.5234 126.831 47.1854 126.898 46.7592 126.898C46.2308 126.898 45.7564 126.773 45.3359 126.523C44.9183 126.273 44.5874 125.909 44.343 125.432C44.1016 124.955 43.9808 124.375 43.9808 123.693C43.9808 123.023 44.0987 122.439 44.3345 121.942C44.5703 121.442 44.8984 121.055 45.3189 120.783C45.7393 120.507 46.2251 120.369 46.7763 120.369C47.2024 120.369 47.5405 120.44 47.7905 120.582C48.0433 120.722 48.2365 120.881 48.37 121.06C48.5064 121.236 48.6115 121.381 48.6854 121.494H48.7876V120.455H49.7592V127.188C49.7592 127.75 49.6314 128.207 49.3757 128.56C49.1229 128.915 48.782 129.175 48.353 129.339C47.9268 129.507 47.4524 129.591 46.9297 129.591ZM46.8956 125.994C47.299 125.994 47.6399 125.902 47.9183 125.717C48.1967 125.533 48.4084 125.267 48.5533 124.92C48.6982 124.574 48.7706 124.159 48.7706 123.676C48.7706 123.205 48.6996 122.788 48.5575 122.428C48.4155 122.067 48.2053 121.784 47.9268 121.58C47.6484 121.375 47.3047 121.273 46.8956 121.273C46.4695 121.273 46.1143 121.381 45.8303 121.597C45.549 121.812 45.3374 122.102 45.1953 122.466C45.0561 122.83 44.9865 123.233 44.9865 123.676C44.9865 124.131 45.0575 124.533 45.1996 124.882C45.3445 125.229 45.5575 125.501 45.8388 125.7C46.1229 125.896 46.4751 125.994 46.8956 125.994ZM54.3445 127.136C53.7138 127.136 53.1697 126.997 52.7124 126.719C52.2578 126.438 51.907 126.045 51.6598 125.543C51.4155 125.037 51.2933 124.449 51.2933 123.778C51.2933 123.108 51.4155 122.517 51.6598 122.006C51.907 121.491 52.2507 121.091 52.6911 120.804C53.1342 120.514 53.6513 120.369 54.2422 120.369C54.5831 120.369 54.9197 120.426 55.2521 120.54C55.5845 120.653 55.8871 120.838 56.1598 121.094C56.4325 121.347 56.6499 121.682 56.8118 122.099C56.9737 122.517 57.0547 123.031 57.0547 123.642V124.068H52.0092V123.199H56.032C56.032 122.83 55.9581 122.5 55.8104 122.21C55.6655 121.92 55.4581 121.692 55.1882 121.524C54.9212 121.357 54.6058 121.273 54.2422 121.273C53.8416 121.273 53.495 121.372 53.2024 121.571C52.9126 121.767 52.6896 122.023 52.5334 122.338C52.3771 122.653 52.299 122.991 52.299 123.352V123.932C52.299 124.426 52.3842 124.845 52.5547 125.189C52.728 125.53 52.968 125.79 53.2749 125.969C53.5817 126.145 53.9382 126.233 54.3445 126.233C54.6087 126.233 54.8473 126.196 55.0604 126.122C55.2763 126.045 55.4624 125.932 55.6186 125.781C55.7749 125.628 55.8956 125.437 55.9808 125.21L56.9524 125.483C56.8501 125.812 56.6783 126.102 56.4368 126.352C56.1953 126.599 55.897 126.793 55.5419 126.932C55.1868 127.068 54.7876 127.136 54.3445 127.136ZM62.9652 123.062V127H61.9595V120.455H62.9311V121.477H63.0163C63.1697 121.145 63.4027 120.878 63.7152 120.676C64.0277 120.472 64.4311 120.369 64.9254 120.369C65.3686 120.369 65.7564 120.46 66.0888 120.642C66.4212 120.821 66.6797 121.094 66.8643 121.46C67.049 121.824 67.1413 122.284 67.1413 122.841V127H66.1357V122.909C66.1357 122.395 66.0021 121.994 65.7351 121.707C65.468 121.418 65.1016 121.273 64.6357 121.273C64.3146 121.273 64.0277 121.342 63.7749 121.482C63.5249 121.621 63.3274 121.824 63.1825 122.091C63.0376 122.358 62.9652 122.682 62.9652 123.062ZM71.6381 127.136C71.0472 127.136 70.5288 126.996 70.0827 126.714C69.6396 126.433 69.293 126.04 69.043 125.534C68.7958 125.028 68.6722 124.437 68.6722 123.761C68.6722 123.08 68.7958 122.484 69.043 121.976C69.293 121.467 69.6396 121.072 70.0827 120.791C70.5288 120.51 71.0472 120.369 71.6381 120.369C72.229 120.369 72.7461 120.51 73.1893 120.791C73.6353 121.072 73.9819 121.467 74.229 121.976C74.479 122.484 74.604 123.08 74.604 123.761C74.604 124.437 74.479 125.028 74.229 125.534C73.9819 126.04 73.6353 126.433 73.1893 126.714C72.7461 126.996 72.229 127.136 71.6381 127.136ZM71.6381 126.233C72.087 126.233 72.4563 126.118 72.7461 125.888C73.0359 125.658 73.2504 125.355 73.3896 124.98C73.5288 124.605 73.5984 124.199 73.5984 123.761C73.5984 123.324 73.5288 122.916 73.3896 122.538C73.2504 122.161 73.0359 121.855 72.7461 121.622C72.4563 121.389 72.087 121.273 71.6381 121.273C71.1893 121.273 70.82 121.389 70.5302 121.622C70.2404 121.855 70.0259 122.161 69.8867 122.538C69.7475 122.916 69.6779 123.324 69.6779 123.761C69.6779 124.199 69.7475 124.605 69.8867 124.98C70.0259 125.355 70.2404 125.658 70.5302 125.888C70.82 126.118 71.1893 126.233 71.6381 126.233ZM78.9858 120.455V121.307H75.5938V120.455H78.9858ZM76.5824 118.886H77.5881V125.125C77.5881 125.409 77.6293 125.622 77.7116 125.764C77.7969 125.903 77.9048 125.997 78.0355 126.045C78.169 126.091 78.3097 126.114 78.4574 126.114C78.5682 126.114 78.6591 126.108 78.7301 126.097C78.8011 126.082 78.858 126.071 78.9006 126.062L79.1051 126.966C79.0369 126.991 78.9418 127.017 78.8196 127.043C78.6974 127.071 78.5426 127.085 78.3551 127.085C78.071 127.085 77.7926 127.024 77.5199 126.902C77.25 126.78 77.0256 126.594 76.8466 126.344C76.6705 126.094 76.5824 125.778 76.5824 125.398V118.886ZM85.7997 127.153C85.3849 127.153 85.0085 127.075 84.6705 126.919C84.3324 126.76 84.0639 126.531 83.8651 126.233C83.6662 125.932 83.5668 125.568 83.5668 125.142C83.5668 124.767 83.6406 124.463 83.7884 124.23C83.9361 123.994 84.1335 123.81 84.3807 123.676C84.6278 123.543 84.9006 123.443 85.1989 123.378C85.5 123.31 85.8026 123.256 86.1065 123.216C86.5043 123.165 86.8267 123.126 87.0739 123.101C87.3239 123.072 87.5057 123.026 87.6193 122.96C87.7358 122.895 87.794 122.781 87.794 122.619V122.585C87.794 122.165 87.679 121.838 87.4489 121.605C87.2216 121.372 86.8764 121.256 86.4134 121.256C85.9332 121.256 85.5568 121.361 85.2841 121.571C85.0114 121.781 84.8196 122.006 84.7088 122.244L83.7543 121.903C83.9247 121.506 84.152 121.196 84.4361 120.974C84.723 120.75 85.0355 120.594 85.3736 120.506C85.7145 120.415 86.0497 120.369 86.3793 120.369C86.5895 120.369 86.831 120.395 87.1037 120.446C87.3793 120.494 87.6449 120.595 87.9006 120.749C88.1591 120.902 88.3736 121.134 88.544 121.443C88.7145 121.753 88.7997 122.168 88.7997 122.688V127H87.794V126.114H87.7429C87.6747 126.256 87.5611 126.408 87.402 126.57C87.2429 126.732 87.0313 126.869 86.767 126.983C86.5028 127.097 86.1804 127.153 85.7997 127.153ZM85.9531 126.25C86.3509 126.25 86.6861 126.172 86.9588 126.016C87.2344 125.859 87.4418 125.658 87.581 125.411C87.723 125.163 87.794 124.903 87.794 124.631V123.71C87.7514 123.761 87.6577 123.808 87.5128 123.851C87.3707 123.891 87.206 123.926 87.0185 123.957C86.8338 123.986 86.6534 124.011 86.4773 124.034C86.304 124.054 86.1634 124.071 86.0554 124.085C85.794 124.119 85.5497 124.175 85.3224 124.251C85.098 124.325 84.9162 124.437 84.777 124.588C84.6406 124.736 84.5724 124.937 84.5724 125.193C84.5724 125.543 84.7017 125.807 84.9602 125.986C85.2216 126.162 85.5526 126.25 85.9531 126.25ZM95.7532 120.455L93.3327 127H92.31L89.8896 120.455H90.9805L92.7873 125.67H92.8555L94.6623 120.455H95.7532ZM98.8075 127.153C98.3928 127.153 98.0163 127.075 97.6783 126.919C97.3402 126.76 97.0717 126.531 96.8729 126.233C96.674 125.932 96.5746 125.568 96.5746 125.142C96.5746 124.767 96.6484 124.463 96.7962 124.23C96.9439 123.994 97.1413 123.81 97.3885 123.676C97.6357 123.543 97.9084 123.443 98.2067 123.378C98.5078 123.31 98.8104 123.256 99.1143 123.216C99.5121 123.165 99.8345 123.126 100.082 123.101C100.332 123.072 100.513 123.026 100.627 122.96C100.744 122.895 100.802 122.781 100.802 122.619V122.585C100.802 122.165 100.687 121.838 100.457 121.605C100.229 121.372 99.8842 121.256 99.4212 121.256C98.9411 121.256 98.5646 121.361 98.2919 121.571C98.0192 121.781 97.8274 122.006 97.7166 122.244L96.7621 121.903C96.9325 121.506 97.1598 121.196 97.4439 120.974C97.7308 120.75 98.0433 120.594 98.3814 120.506C98.7223 120.415 99.0575 120.369 99.3871 120.369C99.5973 120.369 99.8388 120.395 100.112 120.446C100.387 120.494 100.653 120.595 100.908 120.749C101.167 120.902 101.381 121.134 101.552 121.443C101.722 121.753 101.808 122.168 101.808 122.688V127H100.802V126.114H100.751C100.683 126.256 100.569 126.408 100.41 126.57C100.251 126.732 100.039 126.869 99.7749 126.983C99.5107 127.097 99.1882 127.153 98.8075 127.153ZM98.9609 126.25C99.3587 126.25 99.6939 126.172 99.9666 126.016C100.242 125.859 100.45 125.658 100.589 125.411C100.731 125.163 100.802 124.903 100.802 124.631V123.71C100.759 123.761 100.665 123.808 100.521 123.851C100.379 123.891 100.214 123.926 100.026 123.957C99.8416 123.986 99.6612 124.011 99.4851 124.034C99.3118 124.054 99.1712 124.071 99.0632 124.085C98.8018 124.119 98.5575 124.175 98.3303 124.251C98.1058 124.325 97.924 124.437 97.7848 124.588C97.6484 124.736 97.5803 124.937 97.5803 125.193C97.5803 125.543 97.7095 125.807 97.968 125.986C98.2294 126.162 98.5604 126.25 98.9609 126.25ZM103.643 127V120.455H104.649V127H103.643ZM104.154 119.364C103.958 119.364 103.789 119.297 103.647 119.163C103.508 119.03 103.439 118.869 103.439 118.682C103.439 118.494 103.508 118.334 103.647 118.2C103.789 118.067 103.958 118 104.154 118C104.35 118 104.518 118.067 104.657 118.2C104.799 118.334 104.87 118.494 104.87 118.682C104.87 118.869 104.799 119.03 104.657 119.163C104.518 119.297 104.35 119.364 104.154 119.364ZM107.496 118.273V127H106.491V118.273H107.496ZM111.265 127.153C110.85 127.153 110.473 127.075 110.135 126.919C109.797 126.76 109.529 126.531 109.33 126.233C109.131 125.932 109.032 125.568 109.032 125.142C109.032 124.767 109.105 124.463 109.253 124.23C109.401 123.994 109.598 123.81 109.846 123.676C110.093 123.543 110.365 123.443 110.664 123.378C110.965 123.31 111.267 123.256 111.571 123.216C111.969 123.165 112.292 123.126 112.539 123.101C112.789 123.072 112.971 123.026 113.084 122.96C113.201 122.895 113.259 122.781 113.259 122.619V122.585C113.259 122.165 113.144 121.838 112.914 121.605C112.686 121.372 112.341 121.256 111.878 121.256C111.398 121.256 111.022 121.361 110.749 121.571C110.476 121.781 110.284 122.006 110.174 122.244L109.219 121.903C109.39 121.506 109.617 121.196 109.901 120.974C110.188 120.75 110.5 120.594 110.838 120.506C111.179 120.415 111.515 120.369 111.844 120.369C112.054 120.369 112.296 120.395 112.569 120.446C112.844 120.494 113.11 120.595 113.365 120.749C113.624 120.902 113.838 121.134 114.009 121.443C114.179 121.753 114.265 122.168 114.265 122.688V127H113.259V126.114H113.208C113.14 126.256 113.026 126.408 112.867 126.57C112.708 126.732 112.496 126.869 112.232 126.983C111.968 127.097 111.645 127.153 111.265 127.153ZM111.418 126.25C111.816 126.25 112.151 126.172 112.424 126.016C112.699 125.859 112.907 125.658 113.046 125.411C113.188 125.163 113.259 124.903 113.259 124.631V123.71C113.216 123.761 113.123 123.808 112.978 123.851C112.836 123.891 112.671 123.926 112.483 123.957C112.299 123.986 112.118 124.011 111.942 124.034C111.769 124.054 111.628 124.071 111.52 124.085C111.259 124.119 111.015 124.175 110.787 124.251C110.563 124.325 110.381 124.437 110.242 124.588C110.105 124.736 110.037 124.937 110.037 125.193C110.037 125.543 110.167 125.807 110.425 125.986C110.686 126.162 111.017 126.25 111.418 126.25ZM116.237 127V118.273H117.242V121.494H117.327C117.401 121.381 117.504 121.236 117.634 121.06C117.768 120.881 117.958 120.722 118.205 120.582C118.455 120.44 118.793 120.369 119.219 120.369C119.771 120.369 120.256 120.507 120.677 120.783C121.097 121.058 121.425 121.449 121.661 121.955C121.897 122.46 122.015 123.057 122.015 123.744C122.015 124.438 121.897 125.038 121.661 125.547C121.425 126.053 121.099 126.445 120.681 126.723C120.263 126.999 119.782 127.136 119.237 127.136C118.816 127.136 118.479 127.067 118.227 126.928C117.974 126.786 117.779 126.625 117.643 126.446C117.506 126.264 117.401 126.114 117.327 125.994H117.208V127H116.237ZM117.225 123.727C117.225 124.222 117.298 124.658 117.442 125.036C117.587 125.411 117.799 125.705 118.077 125.918C118.356 126.128 118.697 126.233 119.1 126.233C119.521 126.233 119.871 126.122 120.153 125.901C120.437 125.676 120.65 125.375 120.792 124.997C120.937 124.616 121.009 124.193 121.009 123.727C121.009 123.267 120.938 122.852 120.796 122.483C120.657 122.111 120.445 121.817 120.161 121.601C119.88 121.382 119.526 121.273 119.1 121.273C118.691 121.273 118.347 121.376 118.069 121.584C117.79 121.788 117.58 122.075 117.438 122.445C117.296 122.811 117.225 123.239 117.225 123.727ZM124.559 118.273V127H123.553V118.273H124.559ZM129.145 127.136C128.515 127.136 127.971 126.997 127.513 126.719C127.059 126.438 126.708 126.045 126.461 125.543C126.216 125.037 126.094 124.449 126.094 123.778C126.094 123.108 126.216 122.517 126.461 122.006C126.708 121.491 127.051 121.091 127.492 120.804C127.935 120.514 128.452 120.369 129.043 120.369C129.384 120.369 129.721 120.426 130.053 120.54C130.385 120.653 130.688 120.838 130.961 121.094C131.233 121.347 131.451 121.682 131.613 122.099C131.775 122.517 131.855 123.031 131.855 123.642V124.068H126.81V123.199H130.833C130.833 122.83 130.759 122.5 130.611 122.21C130.466 121.92 130.259 121.692 129.989 121.524C129.722 121.357 129.407 121.273 129.043 121.273C128.642 121.273 128.296 121.372 128.003 121.571C127.713 121.767 127.49 122.023 127.334 122.338C127.178 122.653 127.1 122.991 127.1 123.352V123.932C127.1 124.426 127.185 124.845 127.355 125.189C127.529 125.53 127.769 125.79 128.076 125.969C128.382 126.145 128.739 126.233 129.145 126.233C129.409 126.233 129.648 126.196 129.861 126.122C130.077 126.045 130.263 125.932 130.419 125.781C130.576 125.628 130.696 125.437 130.782 125.21L131.753 125.483C131.651 125.812 131.479 126.102 131.238 126.352C130.996 126.599 130.698 126.793 130.343 126.932C129.988 127.068 129.588 127.136 129.145 127.136Z" fill="#989898"/>
<path d="M119.283 47.6544L102.123 45.7487C101.438 44.0829 99.9623 42.8473 98.1402 42.645L70.5133 39.5768C67.7853 39.2738 65.3007 41.3965 64.9745 44.31L59.6792 91.605C59.353 94.5185 61.3071 97.1341 64.0351 97.4371L81.2002 99.3434C81.903 101.052 83.4137 102.251 85.1776 102.447L112.805 105.515C115.533 105.818 118.017 103.695 118.343 100.781L123.639 53.4866C123.965 50.5756 122.011 47.9574 119.283 47.6544ZM119.106 49.2271C120.868 49.4227 122.15 51.0809 122.084 52.9975L102.236 50.7933L102.339 49.8809L106.436 50.3359C106.871 50.3842 107.264 50.0732 107.313 49.6372C107.362 49.2037 107.05 48.8117 106.612 48.7631L102.51 48.3075C102.535 47.9939 102.536 47.6853 102.511 47.3839L119.107 49.2244L119.106 49.2271ZM102.061 52.3635L121.921 54.5691L117.123 97.423L97.2629 95.2174L102.061 52.3635ZM112.981 103.944L85.3539 100.876C84.4682 100.778 83.672 100.291 83.124 99.5567L91.6599 100.505C94.0615 100.771 96.2765 99.1571 96.9914 96.7767L116.945 98.9927L116.765 100.606C116.538 102.653 114.838 104.15 112.981 103.944ZM108.278 49.7441C108.327 49.3106 108.718 48.9968 109.156 49.0454L110.424 49.1862C110.859 49.2345 111.174 49.6242 111.125 50.0603C111.077 50.4938 110.685 50.8076 110.248 50.759L108.98 50.6182C108.544 50.5698 108.23 50.1776 108.278 49.7441Z" fill="#D5D5D5"/>
<path d="M58 96.5392L62 55.7051H66L72 72.6363L78 91.0614L76 100.025L58 96.5392Z" fill="white"/>
<rect width="34.5702" height="54.9307" rx="4" transform="matrix(0.994628 0.108212 -0.108974 0.993542 67.0137 40.8711)" fill="white"/>
<path d="M72.2947 82.4363C72.7813 82.3321 73.0909 81.8539 72.9861 81.3684L72.1842 77.6537C71.7644 75.7087 69.8368 74.466 67.8874 74.8834C64.6618 75.5739 65.9465 75.2988 62.1327 76.1157L60.5928 68.9826C62.9999 68.8218 65.1481 67.2981 66.0569 64.9898C66.1217 64.8251 66.1364 64.6449 66.099 64.4718C64.7506 58.2434 64.8444 58.6219 64.8011 58.5009C64.759 58.3843 64.6904 58.2649 64.5802 58.1581C63.1075 56.7234 60.9672 56.0455 58.8284 56.5035C55.4152 57.2343 53.2364 60.5995 53.9715 64.005L56.8309 77.2508L53.2846 78.0102L50.4252 64.7644C49.69 61.3589 46.315 59.1829 42.9018 59.9138C40.8264 60.3582 39.1233 61.7995 38.3438 63.77C38.3036 63.8651 38.2722 64.0055 38.2795 64.1522C38.2869 64.3045 38.2264 63.9424 39.5619 70.1542C39.5993 70.3273 39.687 70.4856 39.8141 70.6092C41.5954 72.3416 44.182 72.851 46.4429 72.0125L47.9828 79.1456C47.2728 79.2976 42.8731 80.2397 42.2281 80.3778C40.2787 80.7952 39.0343 82.7172 39.4541 84.6622L42.8845 100.553C43.6196 103.958 46.9944 106.134 50.4073 105.403L70.7582 101.046C74.1711 100.315 76.3498 96.9498 75.6147 93.5446L73.7453 84.8852C73.6405 84.3997 73.1609 84.0905 72.6743 84.1947C72.1877 84.2989 71.8781 84.7771 71.9829 85.2626L73.6624 93.0428L54.1859 97.2133C53.6993 97.3175 53.3896 97.7957 53.4944 98.2812C53.5993 98.7667 54.0789 99.0759 54.5655 98.9717L73.9536 94.8202C73.9791 96.9238 72.518 98.8291 70.3785 99.2872L50.0278 103.645C47.8883 104.103 45.7701 102.964 44.9252 101.036L51.0406 99.7265C51.5272 99.6223 51.8368 99.1441 51.732 98.6586C51.6272 98.1731 51.1476 97.8639 50.661 97.9681L44.4573 99.2965L41.2166 84.2848C41.0061 83.3094 41.6301 82.3456 42.6078 82.1362L44.3808 81.7566L44.5744 82.6535C44.993 84.5927 46.9148 85.8317 48.8584 85.4155L63.9219 82.19C65.8655 81.7738 67.1062 79.8576 66.6876 77.9184L66.4939 77.0214L68.2669 76.6417C69.2446 76.4324 70.2112 77.0556 70.4218 78.031L71.2237 81.7457C71.3285 82.2313 71.8081 82.5405 72.2947 82.4363ZM63.2657 59.8883L64.1336 63.9092C63.1063 63.9978 62.1455 63.3107 61.9229 62.2792C61.7002 61.2477 62.2925 60.2281 63.2657 59.8883ZM55.7339 63.6276C55.2081 61.1917 56.7666 58.7847 59.208 58.2619C60.1424 58.0618 61.0967 58.1641 61.948 58.5297C60.5706 59.3605 59.8029 61.0004 60.1605 62.6567C60.5214 64.3288 61.9208 65.5161 63.5387 65.6925C62.566 66.7779 61.1003 67.3551 59.5845 67.1606C58.9681 67.0814 58.4581 67.635 58.5889 68.2412L59.2268 71.1959L57.4499 71.5764L55.7339 63.6276ZM57.8295 73.3349L59.6064 72.9544L60.3702 76.4928L58.5933 76.8733L57.8295 73.3349ZM41.1215 68.8368L40.2535 64.8159C41.2808 64.7273 42.2416 65.4145 42.4643 66.446C42.6869 67.4774 42.0946 68.4971 41.1215 68.8368ZM42.3999 70.2189C43.8019 69.3959 44.5876 67.7406 44.2267 66.0686C43.8692 64.4123 42.4925 63.2315 40.894 63.038C41.5192 62.3562 42.347 61.8723 43.2814 61.6722C45.7228 61.1495 48.1369 62.7059 48.6627 65.1418L50.3787 73.0906L48.6018 73.4711L47.9639 70.5163C47.8332 69.9107 47.1403 69.6142 46.6104 69.9387C45.3089 70.7362 43.7345 70.8102 42.3999 70.2189ZM50.7583 74.849L51.5221 78.3874L49.7452 78.7679L48.9814 75.2295L50.7583 74.849ZM64.9251 78.2958C65.1345 79.2654 64.5141 80.2235 63.5423 80.4316L48.4789 83.6571C47.507 83.8652 46.5461 83.2457 46.3368 82.2761L46.1432 81.3791L64.7315 77.3988L64.9251 78.2958Z" fill="#D4D4D4"/>
<rect width="11.9995" height="0.995997" rx="0.497998" transform="matrix(0.994667 0.10314 -0.103971 0.99458 78.6035 44.75)" fill="#D9D9D9"/>
</svg>
